<svg width="800" height="500" xmlns="http://www.w3.org/2000/svg">
  <defs>
    <linearGradient id="chartGrad" x1="0%" y1="0%" x2="0%" y2="100%">
      <stop offset="0%" style="stop-color:#4CAF50;stop-opacity:0.8" />
      <stop offset="100%" style="stop-color:#4CAF50;stop-opacity:0.2" />
    </linearGradient>
  </defs>
  
  <!-- Background -->
  <rect width="800" height="500" fill="#1e1e2f"/>
  
  <!-- Title -->
  <text x="400" y="30" text-anchor="middle" fill="white" font-size="24" font-weight="bold">AI Training Progress</text>
  <text x="400" y="50" text-anchor="middle" fill="#ccc" font-size="14">Score vs Episodes - Deep Q-Learning Performance</text>
  
  <!-- Chart Area -->
  <rect x="80" y="80" width="640" height="320" fill="#2c2c3e" stroke="#666" stroke-width="1"/>
  
  <!-- Grid Lines -->
  <!-- Vertical grid lines -->
  <g stroke="#444" stroke-width="0.5">
    <line x1="144" y1="80" x2="144" y2="400"/>
    <line x1="208" y1="80" x2="208" y2="400"/>
    <line x1="272" y1="80" x2="272" y2="400"/>
    <line x1="336" y1="80" x2="336" y2="400"/>
    <line x1="400" y1="80" x2="400" y2="400"/>
    <line x1="464" y1="80" x2="464" y2="400"/>
    <line x1="528" y1="80" x2="528" y2="400"/>
    <line x1="592" y1="80" x2="592" y2="400"/>
    <line x1="656" y1="80" x2="656" y2="400"/>
  </g>
  
  <!-- Horizontal grid lines -->
  <g stroke="#444" stroke-width="0.5">
    <line x1="80" y1="144" x2="720" y2="144"/>
    <line x1="80" y1="208" x2="720" y2="208"/>
    <line x1="80" y1="272" x2="720" y2="272"/>
    <line x1="80" y1="336" x2="720" y2="336"/>
  </g>
  
  <!-- Y-axis labels -->
  <g fill="white" font-size="12" text-anchor="end">
    <text x="75" y="85">30</text>
    <text x="75" y="149">25</text>
    <text x="75" y="213">20</text>
    <text x="75" y="277">15</text>
    <text x="75" y="341">10</text>
    <text x="75" y="405">5</text>
  </g>
  
  <!-- X-axis labels -->
  <g fill="white" font-size="12" text-anchor="middle">
    <text x="80" y="420">0</text>
    <text x="144" y="420">50</text>
    <text x="208" y="420">100</text>
    <text x="272" y="420">150</text>
    <text x="336" y="420">200</text>
    <text x="400" y="420">250</text>
    <text x="464" y="420">300</text>
    <text x="528" y="420">350</text>
    <text x="592" y="420">400</text>
    <text x="656" y="420">450</text>
    <text x="720" y="420">500</text>
  </g>
  
  <!-- Axis labels -->
  <text x="400" y="450" text-anchor="middle" fill="white" font-size="14">Episodes</text>
  <text x="30" y="240" text-anchor="middle" fill="white" font-size="14" transform="rotate(-90 30 240)">Average Score</text>
  
  <!-- Training curve (simulated data showing learning progress) -->
  <path d="M 80 395 
           Q 100 390 120 385
           Q 140 380 160 375
           Q 180 365 200 350
           Q 220 340 240 325
           Q 260 310 280 295
           Q 300 280 320 270
           Q 340 260 360 250
           Q 380 240 400 235
           Q 420 230 440 225
           Q 460 220 480 218
           Q 500 216 520 215
           Q 540 214 560 213
           Q 580 212 600 211
           Q 620 210 640 210
           Q 660 209 680 209
           Q 700 208 720 208" 
        stroke="#4CAF50" stroke-width="3" fill="none"/>
  
  <!-- Fill area under curve -->
  <path d="M 80 395 
           Q 100 390 120 385
           Q 140 380 160 375
           Q 180 365 200 350
           Q 220 340 240 325
           Q 260 310 280 295
           Q 300 280 320 270
           Q 340 260 360 250
           Q 380 240 400 235
           Q 420 230 440 225
           Q 460 220 480 218
           Q 500 216 520 215
           Q 540 214 560 213
           Q 580 212 600 211
           Q 620 210 640 210
           Q 660 209 680 209
           Q 700 208 720 208
           L 720 400 L 80 400 Z" 
        fill="url(#chartGrad)"/>
  
  <!-- Key milestones -->
  <circle cx="144" cy="375" r="4" fill="#FF9800"/>
  <circle cx="272" cy="295" r="4" fill="#FF9800"/>
  <circle cx="400" cy="235" r="4" fill="#FF9800"/>
  <circle cx="656" cy="209" r="4" fill="#FF9800"/>
  
  <!-- Milestone labels -->
  <g fill="white" font-size="10">
    <text x="149" y="370">Episode 50</text>
    <text x="149" y="382">Score: 8</text>
    
    <text x="277" y="290">Episode 150</text>
    <text x="277" y="302">Score: 15</text>
    
    <text x="405" y="230">Episode 250</text>
    <text x="405" y="242">Score: 22</text>
    
    <text x="661" y="204">Episode 450</text>
    <text x="661" y="216">Score: 26</text>
  </g>
  
  <!-- Legend -->
  <rect x="550" y="100" width="150" height="80" fill="#2c2c3e" stroke="#666" stroke-width="1" rx="5"/>
  <text x="625" y="120" text-anchor="middle" fill="white" font-size="12" font-weight="bold">Legend</text>
  <line x1="560" y1="135" x2="580" y2="135" stroke="#4CAF50" stroke-width="3"/>
  <text x="585" y="140" fill="white" font-size="10">Training Progress</text>
  <circle cx="570" cy="155" r="3" fill="#FF9800"/>
  <text x="585" y="160" fill="white" font-size="10">Key Milestones</text>
  
  <!-- Performance indicators -->
  <rect x="80" y="430" width="640" height="50" fill="#2c2c3e" stroke="#666" stroke-width="1" rx="5"/>
  <text x="400" y="450" text-anchor="middle" fill="white" font-size="14" font-weight="bold">Training Statistics</text>
  
  <g fill="white" font-size="11">
    <text x="100" y="465">🎯 Peak Score: 26</text>
    <text x="250" y="465">⏱️ Training Time: 3.2 hours</text>
    <text x="420" y="465">🧠 Episodes: 500</text>
    <text x="580" y="465">📈 Convergence: Episode 250</text>
  </g>
</svg>